<svg width="750" height="612" xmlns="http://www.w3.org/2000/svg">
 <g>
  <title>Unplugged: no computer required</title>
  <path fill-opacity="0.5" fill="#337ab7" d="m615,50l-480,0c-26.5,0 -48,21.5 -48,48l0,320c0,26.5 21.5,48 48,48l192,0l-16,48l-72,0c-13.3,0 -24,10.7 -24,24s10.7,24 24,24l272,0c13.3,0 24,-10.7 24,-24s-10.7,-24 -24,-24l-72,0l-16,-48l192,0c26.5,0 48,-21.5 48,-48l0,-320c0,-26.5 -21.5,-48 -48,-48zm-16,352l-448,0l0,-288l448,0l0,288z" id="svg_1"/>
  <path id="svg_7" d="m114.5,290.5" opacity="NaN" fill-opacity="null" stroke-opacity="null" stroke-dasharray="null" stroke-width="null" stroke="null" fill="currentColor"/>
  <g stroke="null" id="svg_6">
   <path stroke="null" id="svg_5" d="m644.55729,554.46078l-620.55526,-479.62113c-7.35153,-5.71668 -8.6805,-16.3168 -2.96381,-23.67887l20.71506,-26.65324c5.71668,-7.36207 16.32735,-8.69104 23.68942,-2.96381l620.55526,479.62113c7.35153,5.71668 8.6805,16.3168 2.96381,23.67887l-20.71506,26.65324c-5.71668,7.36207 -16.32735,8.6805 -23.68942,2.96381z" fill="#337ab7"/>
  </g>
 </g>

</svg>