<svg width="19" height="20" viewBox="0 0 19 20" fill="none" xmlns="http://www.w3.org/2000/svg">
<path fill-rule="evenodd" clip-rule="evenodd" d="M4.1289 9.27659H14.6879V6.07698H11.3239C10.9708 6.07698 10.4793 5.88657 10.2466 5.65384C10.0138 5.42111 9.87224 5.00122 9.87224 4.64969V1.24339H1.32476C1.29547 1.24339 1.27268 1.25804 1.25804 1.27268C1.23362 1.28896 1.22711 1.31011 1.22711 1.34104V18.6655C1.22711 18.6883 1.24176 18.7176 1.25641 18.7322C1.27106 18.755 1.30198 18.7615 1.32313 18.7615C5.03052 18.7615 10.7771 18.7615 14.5887 18.7615C14.618 18.7615 14.6163 18.7468 14.6326 18.7322C14.6554 18.7176 14.6863 18.6866 14.6863 18.6655V16.8492H4.1289C3.45512 16.8492 2.89853 16.2959 2.89853 15.6188V10.5053C2.89853 9.82993 3.45187 9.27659 4.1289 9.27659ZM4.79941 10.9692H6.94605C7.41313 10.9692 7.76304 11.0798 7.9974 11.3028C8.23013 11.5258 8.34568 11.8415 8.34568 12.2532C8.34568 12.6748 8.21873 13.0051 7.96485 13.2427C7.71096 13.4803 7.32362 13.5992 6.80283 13.5992H6.09488V15.1436H4.79941V10.9692ZM6.09325 12.7545H6.41061C6.66124 12.7545 6.83701 12.7106 6.93791 12.6243C7.03882 12.538 7.08927 12.4274 7.08927 12.2923C7.08927 12.1605 7.04533 12.0498 6.95744 11.9587C6.86956 11.8675 6.70518 11.822 6.46106 11.822H6.09163V12.7545H6.09325ZM8.94784 10.9692H10.865C11.2426 10.9692 11.5485 11.0212 11.7813 11.1221C12.014 11.2247 12.206 11.3711 12.359 11.5632C12.5104 11.7552 12.621 11.9782 12.6878 12.2321C12.7561 12.486 12.7903 12.7561 12.7903 13.0409C12.7903 13.4869 12.7398 13.8335 12.6373 14.0793C12.5364 14.325 12.3948 14.5317 12.2142 14.6977C12.0335 14.8637 11.8399 14.9744 11.6332 15.0297C11.35 15.1062 11.0945 15.1436 10.865 15.1436H8.94784V10.9692ZM10.2352 11.9147V14.1948H10.5525C10.8227 14.1948 11.0147 14.1639 11.1303 14.1053C11.2442 14.0451 11.3337 13.9409 11.3988 13.7928C11.4639 13.6431 11.4965 13.4022 11.4965 13.0686C11.4965 12.6259 11.4249 12.3248 11.28 12.1605C11.1352 11.9977 10.8959 11.9163 10.5607 11.9163H10.2352V11.9147ZM13.3843 10.9692H16.5742V11.8675H14.6798V12.5966H16.3008V13.4429H14.6798V15.1453H13.386V10.9692H13.3843ZM15.9134 9.27659H17.5295C18.2065 9.27659 18.7599 9.83156 18.7599 10.507V15.6205C18.7599 16.2959 18.2049 16.8508 17.5295 16.8508H15.9134V19.0561C15.9134 19.3181 15.8076 19.5508 15.6367 19.7233C15.4642 19.8958 15.2315 20 14.9695 20C10.1782 20 5.75962 20 0.943934 20C0.681911 20 0.449182 19.8958 0.27667 19.7233C0.104158 19.5508 0 19.3181 0 19.0561V0.952071C0 0.690048 0.105786 0.45732 0.27667 0.284808C0.449182 0.112296 0.68842 0.00813736 0.943934 0.00813736H10.5004C10.5216 0 10.5444 0 10.5672 0C10.6713 0 10.7771 0.0455692 10.852 0.112296H10.8666C10.8813 0.120433 10.8894 0.126943 10.9041 0.14159L15.7848 5.08259C15.8678 5.1656 15.9281 5.27789 15.9281 5.40483C15.9281 5.44227 15.9199 5.47156 15.9134 5.51062V9.27659ZM10.9871 4.55204V1.45496L14.4747 4.98657H11.4216C11.3012 4.98657 11.197 4.93449 11.114 4.85963C11.0391 4.78477 10.9871 4.67247 10.9871 4.55204Z" fill="white"/>
</svg>
