<svg width="40" height="36" viewBox="0 2 40 36" xmlns="http://www.w3.org/2000/svg" xmlns:xlink="http://www.w3.org/1999/xlink" version="1.1">
<g xmlns="http://www.w3.org/2000/svg"><defs><linearGradient id="a" x1="50.005%" x2="50.005%" y1="8.586%" y2="100.014%"><stop stop-color="#1A237E" stop-opacity=".2" offset="0%"/><stop stop-color="#1A237E" stop-opacity=".02" offset="100%"/></linearGradient><radialGradient id="b" cx="3.168%" cy="2.718%" r="161.248%" fx="3.168%" fy="2.718%" gradientTransform="matrix(1 0 0 .72222 0 .008)"><stop stop-color="#FFF" offset="0%"/><stop stop-color="#FFF" stop-opacity="0" offset="100%"/></radialGradient></defs><g fill="none" fill-rule="evenodd"><path fill="#4285F4" d="M9.5 2H24l9 9v24.5c0 1.3807119-1.1192881 2.5-2.5 2.5h-21C8.11928813 38 7 36.8807119 7 35.5v-31C7 3.11928813 8.11928813 2 9.5 2z"/><path fill="#1A237E" fill-opacity=".2" d="M7 35c0 1.3807119 1.11928813 2.5 2.5 2.5h21c1.3807119 0 2.5-1.1192881 2.5-2.5v.5c0 1.3807119-1.1192881 2.5-2.5 2.5h-21C8.11928813 38 7 36.8807119 7 35.5V35z"/><path fill="#FFF" fill-opacity=".2" d="M9.5 2H24v.5H9.5C8.11928813 2.5 7 3.61928813 7 5v-.5C7 3.11928813 8.11928813 2 9.5 2z"/><path fill="url(#a)" fill-rule="nonzero" d="M17.5 8l8.5 8.5V9" transform="translate(7 2)"/><path fill="#A1C2FA" d="M24 2l9 9h-6.5C25.1192881 11 24 9.88071187 24 8.5V2z"/><path fill="#F1F1F1" d="M13 18h14v2H13v-2zm0 4h14v2H13v-2zm0 4h14v2H13v-2zm0 4h10v2H13v-2z"/><path fill="url(#b)" fill-opacity=".1" d="M2.5 0H17l9 9v24.5c0 1.3807119-1.1192881 2.5-2.5 2.5h-21C1.11928813 36 0 34.8807119 0 33.5v-31C0 1.11928813 1.11928813 0 2.5 0z" transform="translate(7 2)"/></g></g>
</svg>